HIERARCHY
ROOT hip
{
  OFFSET 0 0 0
  CHANNELS 6 Xposition Yposition Zposition Zrotation Yrotation Xrotation
  JOINT abdomen
  {
    OFFSET 0 20.6881 -0.73152
    CHANNELS 3 Zrotation Xrotation Yrotation
    JOINT chest
    {
      OFFSET 0 11.7043 -0.48768
      CHANNELS 3 Zrotation Xrotation Yrotation
      JOINT neck
      {
        OFFSET 0 22.1894 -2.19456
        CHANNELS 3 Zrotation Xrotation Yrotation
        JOINT head
        {
          OFFSET -0.24384 7.07133 1.2192
          CHANNELS 3 Zrotation Xrotation Yrotation
          JOINT leftEye
          {
            OFFSET 4.14528 8.04674 8.04672
            CHANNELS 3 Zrotation Xrotation Yrotation
            End Site
            {
              OFFSET 1 0 0
            }
          }
          JOINT rightEye
          {
            OFFSET -3.6576 8.04674 8.04672
            CHANNELS 3 Zrotation Xrotation Yrotation
            End Site
            {
              OFFSET 1 0 0
            }
          }
        }
      }
      JOINT rCollar
      {
        OFFSET -2.68224 19.2634 -4.8768
        CHANNELS 3 Zrotation Xrotation Yrotation
        JOINT rShldr
        {
          OFFSET -8.77824 -1.95073 1.46304
          CHANNELS 3 Zrotation Xrotation Yrotation
          JOINT rForeArm
          {
            OFFSET -28.1742 -1.7115 0.48768
            CHANNELS 3 Zrotation Xrotation Yrotation
            JOINT rHand
            {
              OFFSET -22.5879 0.773209 7.07136
              CHANNELS 3 Zrotation Xrotation Yrotation
              JOINT rThumb1
              {
                OFFSET -1.2192 -0.487915 3.41376
                CHANNELS 3 Zrotation Xrotation Yrotation
                JOINT rThumb2
                {
                  OFFSET -3.37035 -0.52449 3.41376
                  CHANNELS 3 Zrotation Xrotation Yrotation
                  End Site
                  {
                    OFFSET -1.78271 -1.18214 1.43049
                  }
                }
              }
              JOINT rIndex1
              {
                OFFSET -7.75947 0.938293 5.60832
                CHANNELS 3 Zrotation Xrotation Yrotation
                JOINT rIndex2
                {
                  OFFSET -2.54057 -0.884171 1.56538
                  CHANNELS 3 Zrotation Xrotation Yrotation
                  End Site
                  {
                    OFFSET -1.62519 -0.234802 1.16502
                  }
                }
              }
              JOINT rMid1
              {
                OFFSET -8.24714 1.18213 3.41376
                CHANNELS 3 Zrotation Xrotation Yrotation
                JOINT rMid2
                {
                  OFFSET -3.10165 -0.590103 1.0647
                  CHANNELS 3 Zrotation Xrotation Yrotation
                  End Site
                  {
                    OFFSET -2.48547 -0.328903 0.83742
                  }
                }
              }
              JOINT rRing1
              {
                OFFSET -8.82822 0.546677 1.51678
                CHANNELS 3 Zrotation Xrotation Yrotation
                JOINT rRing2
                {
                  OFFSET -2.60934 -0.819778 -0.0198488
                  CHANNELS 3 Zrotation Xrotation Yrotation
                  End Site
                  {
                    OFFSET -2.33842 -0.294052 0.168128
                  }
                }
              }
              JOINT rPinky1
              {
                OFFSET -8.27202 -0.0477905 -0.4584
                CHANNELS 3 Zrotation Xrotation Yrotation
                JOINT rPinky2
                {
                  OFFSET -1.82734 -0.647385 -0.700984
                  CHANNELS 3 Zrotation Xrotation Yrotation
                  End Site
                  {
                    OFFSET -1.69225 -0.51767 -0.607171
                  }
                }
              }
            }
          }
        }
      }
      JOINT lCollar
      {
        OFFSET 2.68224 19.2634 -4.8768
        CHANNELS 3 Zrotation Xrotation Yrotation
        JOINT lShldr
        {
          OFFSET 8.77824 -1.95073 1.46304
          CHANNELS 3 Zrotation Xrotation Yrotation
          JOINT lForeArm
          {
            OFFSET 28.1742 -1.7115 0.48768
            CHANNELS 3 Zrotation Xrotation Yrotation
            JOINT lHand
            {
              OFFSET 22.5879 0.773209 7.07136
              CHANNELS 3 Zrotation Xrotation Yrotation
              JOINT lThumb1
              {
                OFFSET 1.2192 -0.487915 3.41376
                CHANNELS 3 Zrotation Xrotation Yrotation
                JOINT lThumb2
                {
                  OFFSET 3.37035 -0.52449 3.41376
                  CHANNELS 3 Zrotation Xrotation Yrotation
                  End Site
                  {
                    OFFSET 1.78271 -1.18214 1.43049
                  }
                }
              }
              JOINT lIndex1
              {
                OFFSET 7.75947 0.938293 5.60832
                CHANNELS 3 Zrotation Xrotation Yrotation
                JOINT lIndex2
                {
                  OFFSET 2.54057 -0.884171 1.56538
                  CHANNELS 3 Zrotation Xrotation Yrotation
                  End Site
                  {
                    OFFSET 1.62519 -0.234802 1.16502
                  }
                }
              }
              JOINT lMid1
              {
                OFFSET 8.24714 1.18213 3.41376
                CHANNELS 3 Zrotation Xrotation Yrotation
                JOINT lMid2
                {
                  OFFSET 3.10165 -0.590103 1.0647
                  CHANNELS 3 Zrotation Xrotation Yrotation
                  End Site
                  {
                    OFFSET 2.48547 -0.328903 0.83742
                  }
                }
              }
              JOINT lRing1
              {
                OFFSET 8.82822 0.546677 1.51678
                CHANNELS 3 Zrotation Xrotation Yrotation
                JOINT lRing2
                {
                  OFFSET 2.60934 -0.819778 -0.0198488
                  CHANNELS 3 Zrotation Xrotation Yrotation
                  End Site
                  {
                    OFFSET 2.33842 -0.294052 0.168128
                  }
                }
              }
              JOINT lPinky1
              {
                OFFSET 8.27202 -0.0477905 -0.4584
                CHANNELS 3 Zrotation Xrotation Yrotation
                JOINT lPinky2
                {
                  OFFSET 1.82734 -0.647385 -0.700984
                  CHANNELS 3 Zrotation Xrotation Yrotation
                  End Site
                  {
                    OFFSET 1.69225 -0.51767 -0.607171
                  }
                }
              }
            }
          }
        }
      }
    }
  }
  JOINT rButtock
  {
    OFFSET -8.77824 4.35084 1.2192
    CHANNELS 3 Zrotation Xrotation Yrotation
    JOINT rThigh
    {
      OFFSET 0 -1.70687 -2.19456
      CHANNELS 3 Zrotation Xrotation Yrotation
      JOINT rShin
      {
        OFFSET 0 -36.8199 0.73152
        CHANNELS 3 Zrotation Xrotation Yrotation
        JOINT rFoot
        {
          OFFSET 0.73152 -45.1104 -5.12064
          CHANNELS 3 Zrotation Xrotation Yrotation
          End Site
          {
            OFFSET -1.1221 -3.69964 12.103
          }
        }
      }
    }
  }
  JOINT lButtock
  {
    OFFSET 8.77824 4.35084 1.2192
    CHANNELS 3 Zrotation Xrotation Yrotation
    JOINT lThigh
    {
      OFFSET 0 -1.70687 -2.19456
      CHANNELS 3 Zrotation Xrotation Yrotation
      JOINT lShin
      {
        OFFSET 0 -36.8199 0.73152
        CHANNELS 3 Zrotation Xrotation Yrotation
        JOINT lFoot
        {
          OFFSET -0.73152 -45.1104 -5.12064
          CHANNELS 3 Zrotation Xrotation Yrotation
          End Site
          {
            OFFSET 1.1221 -3.69964 12.103
          }
        }
      }
    }
  }
}
MOTION
Frames:	4
Frame Time:	0.03333
0.20877495408058167 61.605846881866455 -0.004831003025174141 -7.22187149060901 6.063123494614 2.1455107614720412 -2.510267409143052 15.387055284846603 4.07587312540962 2.711044661776985 -10.079822422375567 1.19176897242426 -4.950119409924681 15.35237329178857 -3.1087518495514295 8.65647247104744 -25.302558723717297 -4.632012313954622 0.09869698055862472 -0.05105587748925688 -0.0013746155911047342 -0.020674982617628596 -0.0437949595147102 -0.01637353758568084 0.11425860608714675 -0.06159528626540968 0.015062931672671837 46.00862211716404 29.03272993513636 15.767776859372283 -24.24749598753084 -30.5373454772093 66.36862031593374 -5.08960126428645 -11.070318526564245 -5.738412032603362 0.06191299678352105 -0.0080570085388234 0.10086332446428237 0.05381436677944289 -0.019569105621894775 0.021994543148763326 -0.03471923893334997 0.03912513783483132 0.08169589266252252 7.641735171720741 5.460977859367084 0.46363046609611525 0.035381980726252774 -0.021094452282202584 -0.04861376469585997 2.8754897903380927 0.9803630916681408 0.15838150806351012 -0.03774309174496156 0.0526343448786174 0.028434184236468863 10.063566572150938 0.728662830068649 0.06207854882961453 -0.03560396187427819 0.04443155448969654 0.10123758414624467 2.2621838394307874 -0.6604736898506794 -0.14061697310488708 0.08015835304732917 0.06643618283965622 -0.014021471231537035 -54.79543508814283 31.571685419453935 -23.634199641577055 23.46832337494142 -28.746275216440612 -63.05246785124417 5.560949630701268 -14.987905859940227 5.055776033082431 -0.09881207991831001 0.10553181212283896 -0.01447765316289984 -0.09224629377437081 -0.035180223341472944 0.024988673965314775 -0.0031888445687497033 0.02597262141219329 0.0694779115369862 -7.798612664124886 5.431290442139623 -0.3402572393658509 -0.09112037977837652 -0.05518606086385185 -0.00857799722602199 -2.827827663092686 0.9212340373016347 -0.061742308755336844 0.03149688374898489 0.06555711614913441 -0.08795573435641275 -10.222292484499217 0.7212582113172675 0.10781912508199988 -0.13466128827247398 -0.03388550228735884 -0.060148673543542135 -2.172488941476534 -0.7567776496005668 0.3040043027987157 -0.07667634395279783 -0.001952260163860051 -0.024481479058588437 -31.179625730906032 -36.34776008338247 -29.166413812666434 -6.538127292895244 62.15583476795074 7.407818268120729 -4.884977334489331 -10.209850441152392 -10.104493065657653 -0.025942285767324914 0.032849808153389545 -0.032096339570359296 36.1420996723788 -34.18278819197435 31.552769210547584 6.692306006803588 63.22369386354722 -7.906898483226269 5.211679369756204 -10.334629459552064 13.352589525457217
0.09153196588158607 63.83777856826782 -0.019972119480371475 -4.982616169335132 4.682990711485482 4.142628406149562 -2.6829631927781237 14.360095362000166 3.165850310022032 2.883058707155525 -9.24406852270176 0.8782248697065933 -5.087073667406722 15.37719590677969 -4.488640239973708 8.79299343840401 -25.21242242478793 -6.4539554566585915 0.06784709715093987 -0.10328142487387844 0.041324738892053105 0.25749364939783786 0.0462347777914328 -0.022926890650896512 0.060226847193027046 -0.09717320804347719 0.058633238661658774 52.42081737035035 30.439759149442743 15.871479621540587 -23.67183569145112 -28.056187053648372 65.21974151640258 -3.9997493864493583 -9.618044431648407 -4.196039204798593 -0.0943266199851686 0.06195339094915933 -0.017976044039268637 0.05749365094711124 0.05206639864087497 0.15659462652297162 0.030896787597375804 -0.015265792960095843 -0.0455216900338276 7.681978646310456 5.2905936678792385 0.48001982517467817 -0.028642184841036908 -0.04703124188167975 -0.08932275936619379 2.795463025153992 0.7688674579574596 0.09894296075023774 -0.02980742578561166 -0.02468985318912672 -0.10188550496225708 10.257752265348985 0.6979311943109698 0.09181057573009159 0.11662750779037757 -0.146593255226516 0.02099055870162434 2.113872044576073 -0.80414805306322 -0.21543673290305793 0.05921848715595102 -0.01714788360240459 0.01482449870668955 -62.231738660197095 33.239054124164525 -26.149097492090554 22.763022673320272 -26.47548320422149 -62.149223144834174 4.694794559031734 -11.974673138714369 3.4463619103662246 -0.029007386518221028 -0.05837933438339148 -0.0660346957825064 -0.00657896627460322 -0.06030683511151024 -0.04552310409642921 0.010376444731424527 -0.04478515018137693 0.027540763476519462 -7.635536775048955 5.336662440057328 -0.4054679635384452 -0.03509537958537669 -0.08851231473248945 -0.04643346692717141 -2.94396371742794 0.9572636053385692 -0.18587448689626593 -0.143415296271756 0.11675578728072687 -0.08355261021928172 -10.16676390032066 0.7416685241045581 -0.07702660459117255 0.023851547520106823 -0.14039120333630642 0.041491371495417616 -2.1027273102847275 -0.6517928929415635 0.10840774865023746 -0.024725711682269284 0.05425341987702777 0.042528119506231504 -32.86594138037424 -35.93994997860852 -27.226035616641266 -4.553413058307054 62.74442631967659 6.0763727809433545 -4.552471345975238 -9.565896791109006 -10.603030280724177 0.05031453516004604 0.16929506979991946 0.1611932114642414 37.61021809862177 -32.96741750087312 29.742557344629937 4.150223149619793 63.1116582705915 -5.467041359802763 5.240473739749684 -10.020359649235083 15.4029542576871
0.1604454591870308 63.75826597213745 -1.122721005231142 -11.989893361506097 -47.42457155852645 5.664551647579314 -0.10253298555123314 15.059733836799374 9.421828464719573 -0.2855552681594237 -10.35397682414977 2.450718191420884 -2.2929604583874537 12.857752565373548 5.123966934208545 4.615674074573128 -25.782879824267397 9.792585647019852 -0.09778675113001474 0.41042446640047947 -0.2422167040194879 0.14417632875568354 -0.08454226727741955 0.5634224113560576 0.14055403397890248 -0.28427524802028104 -0.05713633333594172 43.63567096552904 56.3574652003789 23.833337221923365 -27.04888953787511 -40.67644028120224 86.63797165913363 -15.991986356614415 -50.0989662789908 -21.68504806756301 0.3684196567785473 -0.01304176597246333 -0.3921242018190468 0.18791440560121223 -0.1946946223324928 0.13274456643663915 0.06633927953080666 0.24596151531450605 0.011047190652260936 7.784849832947311 5.433869265438126 0.5262214658764658 0.2371448083130774 -0.23985666021783691 -0.30164495268815233 3.1720706913652097 0.8663335103616011 0.19206186455193056 0.3769199872831869 0.024978908929235773 0.19672257486617833 10.215328252866744 0.6933058755824019 -0.2056885588535688 -0.05616080356360672 0.4604003202272281 0.20192088243308695 1.8653451528979923 -0.6110175173702337 0.24302082539212466 0.29177693016307066 0.3687522016137623 -0.018499940892949773 -56.63083669171949 18.602006544151386 -37.866613154780296 24.074137248659454 -27.128302439807555 -60.76277670559163 -0.8589740348917653 12.877285198852492 -4.688976945406175 -0.2920381848988236 -0.10559339054707487 -0.029222750920487994 0.18851578241329067 0.014121629552412926 -0.20610960266330305 0.1570263691837105 -0.12759404351349418 0.27340601581241064 -8.22615177031642 5.424695040722329 -0.22292520823475712 0.04926402004918634 -0.03004285386856554 -0.21932215004544314 -2.618580762444526 0.8825061176557218 0.37581723189734717 0.1516755029383873 -0.4894275569827245 0.2625592485236073 -10.387626604869485 0.7976269833140032 0.33382538896266745 -0.38412215495870083 0.23081090175537483 -0.2217931043798275 -2.4738949442654414 -0.6350580757013861 0.5722409859873374 0.19229970721347775 0.312029134743246 -0.17934411901843295 -9.09528907333231 -30.037129743154246 -11.949500476528288 -5.5495018067655035 70.39346637871466 6.6390988331691885 -10.788838746905205 -19.11338280731024 -26.20093179770178 -0.16790590003618877 -0.2353815522901563 0.03773252629608919 39.11064331963891 -49.97560964748578 32.672209894755994 -5.482643219414364 67.23793947273629 4.591499900666338 1.2177332962238288 1.9256183706721814 6.635378941392471
1.204769965261221 58.79706144332886 -1.2432456482201815 -7.469587083879739 -44.72760989304439 10.483630036295892 -5.754737465380162 16.322492380362164 12.53686771684541 -2.185913678290194 -9.590388995699024 3.079214056155475 -1.8043086614840542 13.833364833587122 2.943226910771225 5.534049357541996 -26.570135965739528 10.711338297940362 -0.0075869527857090075 0.44671656983363645 -0.2999463166580819 0.3654412674135986 -0.43275769088254024 -0.285292652721922 0.005184807271127257 0.5408530117391025 -0.3544497588113292 35.27942287454409 64.71411627252488 37.26298152650208 -26.984752354021396 -42.14587010376586 89.1895459179428 -17.347244444559394 -60.734574854508644 -23.544841984213072 0.08738213186826391 0.349508837318339 -0.3192588366188516 0.49501998780908396 -0.5125262962603556 0.42182762730237444 -0.36064145869607794 -0.5550917150027577 -0.4261667717768895 7.624055227054163 5.058558481395565 0.6164633125728495 0.460477053133685 0.16181657294771085 -0.5211006382679545 3.3319914599314187 0.5812789804457039 0.022629950844772852 0.7031123196832477 0.394300043956519 -0.25858402506580697 9.223784568414114 0.0956777568010014 -0.4898088736374816 -0.05223435192534853 0.18078753008912704 -0.165841688802964 1.6890372664090416 -0.17086860131038759 -0.4302522120763356 0.7771794780122477 -0.6429772531571927 -0.9112238614644521 -64.83856231920251 22.750772729043852 -28.90032330298108 26.44093098475769 -29.18520366307314 -65.361454281302 -0.27488058962119294 13.695258408569465 -2.924258835115865 0.8728813138981161 -1.0194198208895662 0.6296196442964691 0.23313004446328506 0.2732588999409909 -0.7071682247506188 -0.44069554463685867 0.2951370363891731 0.2351422288649414 -7.531674357208802 5.67915032315657 -0.06151225677831171 0.0030901803517547535 -0.8604692059897633 1.0437299582495225 -2.3929104584936582 0.8811067826495155 0.14119125594391027 -0.22531913617799368 -0.789543507792146 0.8152335568078565 -9.323677792572843 1.6749713455870465 -0.23847360027176223 0.12933117939892527 0.5379390822844459 0.446561503195136 -1.1213824856451033 -0.9024676656702015 -0.3893709418924441 0.4640299254408552 0.41039858638682747 -0.07550931541965124 -7.25123788894548 -34.60175199566294 -14.96100345234684 -5.922481788753798 80.13408111633989 7.796890602680397 -11.052502831887914 -22.605699511072782 -26.582271504347347 -1.0639291755027775 -0.00400969456876772 0.47672692694279156 22.017608270703636 -50.907537733315245 17.095519530245866 0.4418693766787488 53.88710872099035 -0.6977579316216337 -1.2570295089530277 11.489512849137316 5.604386645614787
